<?xml version="1.0" encoding="UTF-8"?>
<svg version="1.1" xmlns="http://www.w3.org/2000/svg" width="174" height="30">
<path d="M0 0 C16.5 0 33 0 50 0 C49.67 1.98 49.34 3.96 49 6 C48.01 6 47.02 6 46 6 C46 10.95 46 15.9 46 21 C43.36 21 40.72 21 38 21 C38 16.05 38 11.1 38 6 C36.68 6 35.36 6 34 6 C34 10.95 34 15.9 34 21 C22.78 21 11.56 21 0 21 C0 14.07 0 7.14 0 0 Z M15 4 C15 4.66 15 5.32 15 6 C12.69 6 10.38 6 8 6 C8 6.33 8 6.66 8 7 C10.31 7 12.62 7 15 7 C15 8.98 15 10.96 15 13 C12.69 13 10.38 13 8 13 C8 13.66 8 14.32 8 15 C10.64 15 13.28 15 16 15 C16 11.37 16 7.74 16 4 C15.67 4 15.34 4 15 4 Z " fill="#FEFEFE" transform="translate(121,4)"/>
<path d="M0 0 C7.59 0 15.18 0 23 0 C23 4.95 23 9.9 23 15 C25.31 15 27.62 15 30 15 C29.98839844 14.00097656 29.97679688 13.00195312 29.96484375 11.97265625 C29.95582031 10.68230469 29.94679688 9.39195313 29.9375 8.0625 C29.92589844 6.77472656 29.91429688 5.48695312 29.90234375 4.16015625 C30 1 30 1 31 0 C33.51136104 -0.09975032 35.98903415 -0.13882183 38.5 -0.125 C39.20253906 -0.12886719 39.90507813 -0.13273438 40.62890625 -0.13671875 C45.87338622 -0.12661378 45.87338622 -0.12661378 47 1 C47.09860131 2.40348735 47.13078937 3.81180477 47.1328125 5.21875 C47.13474609 6.49298828 47.13474609 6.49298828 47.13671875 7.79296875 C47.13285156 8.68628906 47.12898438 9.57960938 47.125 10.5 C47.13080078 11.83998047 47.13080078 11.83998047 47.13671875 13.20703125 C47.13542969 14.05652344 47.13414063 14.90601563 47.1328125 15.78125 C47.13168457 16.56564453 47.13055664 17.35003906 47.12939453 18.15820312 C47 20 47 20 46 21 C44.55710213 21.09295815 43.10970215 21.11746513 41.66381836 21.11352539 C40.28249977 21.11341209 40.28249977 21.11341209 38.87327576 21.11329651 C37.87224319 21.10813522 36.87121063 21.10297394 35.83984375 21.09765625 C34.82024063 21.0962413 33.80063751 21.09482635 32.75013733 21.09336853 C29.47922893 21.08775097 26.20838787 21.0751955 22.9375 21.0625 C20.72591244 21.05748726 18.51432382 21.05292396 16.30273438 21.04882812 C10.86846643 21.03777584 5.43423803 21.02102063 0 21 C-1.64072259 17.71855481 -1.14274434 14.10210004 -1.125 10.5 C-1.12886719 9.71496094 -1.13273437 8.92992187 -1.13671875 8.12109375 C-1.12665394 2.25330787 -1.12665394 2.25330787 0 0 Z M14 4 C14 4.66 14 5.32 14 6 C11.69 6 9.38 6 7 6 C7 8.97 7 11.94 7 15 C9.64 15 12.28 15 15 15 C15 11.37 15 7.74 15 4 C14.67 4 14.34 4 14 4 Z M38 6 C38 8.97 38 11.94 38 15 C38.33 15 38.66 15 39 15 C39 12.03 39 9.06 39 6 C38.67 6 38.34 6 38 6 Z " fill="#FEFEFE" transform="translate(37,4)"/>
<path d="M0 0 C2.5625 1.875 2.5625 1.875 5 4 C8.17921787 5.25556887 8.17921787 5.25556887 11 6 C11.6875 8.1875 11.6875 8.1875 12 11 C11.54496094 11.75539063 11.08992188 12.51078125 10.62109375 13.2890625 C8.84437373 16.26025213 8.13607336 18.821214 7.375 22.1875 C6.07744875 27.84510251 6.07744875 27.84510251 5 30 C3.35 29.67 1.7 29.34 0 29 C0 26.36 0 23.72 0 21 C-0.66 21.33 -1.32 21.66 -2 22 C-2.46523063 23.89533342 -2.46523063 23.89533342 -2.625 26.0625 C-2.74875 27.361875 -2.8725 28.66125 -3 30 C-5.375 29.75 -5.375 29.75 -8 29 C-10.30265872 25.38270278 -10.73706879 21.49865406 -11.4375 17.33984375 C-11.9179794 14.74944357 -11.9179794 14.74944357 -14 12 C-14.55335968 5.80237154 -14.55335968 5.80237154 -12.75 3.1875 C-8.38167232 0.22327765 -5.41113877 -0.56959355 0 0 Z " fill="#2D2D41" transform="translate(16,0)"/>
<path d="M0 0 C5.61 0 11.22 0 17 0 C17 6.93 17 13.86 17 21 C11.39 21 5.78 21 0 21 C0 14.07 0 7.14 0 0 Z M8 6 C8 8.97 8 11.94 8 15 C8.33 15 8.66 15 9 15 C9 12.03 9 9.06 9 6 C8.67 6 8.34 6 8 6 Z " fill="#FEFEFE" transform="translate(103,4)"/>
<path d="M0 0 C5.61 0 11.22 0 17 0 C17 6.93 17 13.86 17 21 C13.0709375 21.0309375 13.0709375 21.0309375 9.0625 21.0625 C8.2362915 21.071604 7.41008301 21.08070801 6.55883789 21.09008789 C4.70566241 21.09723945 2.85250692 21.0502852 1 21 C0 20 0 20 -0.11352539 18.05053711 C-0.10567017 16.8015564 -0.10567017 16.8015564 -0.09765625 15.52734375 C-0.09443359 14.62822266 -0.09121094 13.72910156 -0.08789062 12.80273438 C-0.07951172 11.85720703 -0.07113281 10.91167969 -0.0625 9.9375 C-0.05798828 8.98810547 -0.05347656 8.03871094 -0.04882812 7.06054688 C-0.03700128 4.70700469 -0.01906521 2.35349468 0 0 Z " fill="#FEFEFE" transform="translate(85,4)"/>
<path d="M0 0 C1.3303125 0.4640625 1.3303125 0.4640625 2.6875 0.9375 C2.6875 1.5975 2.6875 2.2575 2.6875 2.9375 C4.3375 2.9375 5.9875 2.9375 7.6875 2.9375 C8.06968767 4.59364657 8.40145102 6.26207024 8.6875 7.9375 C7.6875 8.9375 7.6875 8.9375 5.82983398 9.05102539 C5.03907471 9.04578857 4.24831543 9.04055176 3.43359375 9.03515625 C2.57958984 9.03193359 1.72558594 9.02871094 0.84570312 9.02539062 C-0.05212891 9.01701172 -0.94996094 9.00863281 -1.875 9 C-2.77669922 8.99548828 -3.67839844 8.99097656 -4.60742188 8.98632812 C-6.84251314 8.97450225 -9.07747437 8.9580222 -11.3125 8.9375 C-11.97916667 6.27083333 -12.64583333 3.60416667 -13.3125 0.9375 C-8.12223577 -2.7698316 -5.79884667 -1.86000742 0 0 Z " fill="#524DE4" transform="translate(17.3125,4.0625)"/>
<path d="M0 0 C5.28 0 10.56 0 16 0 C15.27047488 9.77563661 15.27047488 9.77563661 12 14 C11.67 14 11.34 14 11 14 C10.67 11.36 10.34 8.72 10 6 C8.68 5.67 7.36 5.34 6 5 C5.34 7.97 4.68 10.94 4 14 C2.4375 12.25 2.4375 12.25 1 10 C1.31229724 8.66158328 1.64830932 7.32860925 2 6 C1.34 4.02 0.68 2.04 0 0 Z " fill="#D1D1D1" transform="translate(7,15)"/>
<path d="M0 0 C1.65322266 0.01740234 1.65322266 0.01740234 3.33984375 0.03515625 C4.99693359 0.04869141 4.99693359 0.04869141 6.6875 0.0625 C7.54214844 0.07410156 8.39679687 0.08570313 9.27734375 0.09765625 C9.27734375 0.42765625 9.27734375 0.75765625 9.27734375 1.09765625 C5.64734375 1.09765625 2.01734375 1.09765625 -1.72265625 1.09765625 C-1.20703125 2.00515625 -0.69140625 2.91265625 -0.16015625 3.84765625 C1.3250058 7.20541394 1.44217365 7.83613254 0.27734375 11.09765625 C0.60734375 11.75765625 0.93734375 12.41765625 1.27734375 13.09765625 C1.93734375 10.78765625 2.59734375 8.47765625 3.27734375 6.09765625 C5.15234375 5.47265625 5.15234375 5.47265625 7.27734375 5.09765625 C10.03957653 7.85988903 9.85590666 10.30472242 10.27734375 14.09765625 C10.60734375 13.43765625 10.93734375 12.77765625 11.27734375 12.09765625 C11.93734375 12.09765625 12.59734375 12.09765625 13.27734375 12.09765625 C12.94734375 13.41765625 12.61734375 14.73765625 12.27734375 16.09765625 C10.62734375 15.76765625 8.97734375 15.43765625 7.27734375 15.09765625 C7.27734375 12.45765625 7.27734375 9.81765625 7.27734375 7.09765625 C6.28734375 7.59265625 6.28734375 7.59265625 5.27734375 8.09765625 C4.81211312 9.99298967 4.81211312 9.99298967 4.65234375 12.16015625 C4.52859375 13.45953125 4.40484375 14.75890625 4.27734375 16.09765625 C1.90234375 15.84765625 1.90234375 15.84765625 -0.72265625 15.09765625 C-2.65333313 12.13100641 -3.09593706 9.39747416 -3.41015625 5.91015625 C-3.49652344 5.02972656 -3.58289063 4.14929688 -3.671875 3.2421875 C-3.68863281 2.53449219 -3.70539062 1.82679687 -3.72265625 1.09765625 C-2.72265625 0.09765625 -2.72265625 0.09765625 0 0 Z " fill="#3E3E3E" transform="translate(8.72265625,13.90234375)"/>
<path d="M0 0 C2.875 -0.1875 2.875 -0.1875 6 0 C8 3 8 3 7.75 5.5 C7 8 7 8 5 11 C4.56261304 12.71444889 4.19151312 14.44667784 3.875 16.1875 C3.70742188 17.08855469 3.53984375 17.98960938 3.3671875 18.91796875 C3.24601562 19.60503906 3.12484375 20.29210937 3 21 C2.34 21 1.68 21 1 21 C1.33 17.7 1.66 14.4 2 11 C0.68 10.34 -0.64 9.68 -2 9 C0.31 8.34 2.62 7.68 5 7 C5 5.68 5 4.36 5 3 C3.35 2.67 1.7 2.34 0 2 C0 1.34 0 0.68 0 0 Z " fill="#2B2B32" transform="translate(20,5)"/>
<path d="M0 0 C2 3.75 2 3.75 2 6 C7.28 6.33 12.56 6.66 18 7 C18 7.33 18 7.66 18 8 C14.8765076 8.25427918 11.75153179 8.47412319 8.625 8.6875 C7.29082031 8.79674805 7.29082031 8.79674805 5.9296875 8.90820312 C5.07890625 8.96298828 4.228125 9.01777344 3.3515625 9.07421875 C2.56604004 9.13182373 1.78051758 9.18942871 0.97119141 9.2487793 C0.32069824 9.16668213 -0.32979492 9.08458496 -1 9 C-3 6 -3 6 -2.75 3.375 C-2.5025 2.59125 -2.255 1.8075 -2 1 C-1.34 0.67 -0.68 0.34 0 0 Z " fill="#313064" transform="translate(5,6)"/>
<path d="M0 0 C1.65322266 0.01740234 1.65322266 0.01740234 3.33984375 0.03515625 C4.99693359 0.04869141 4.99693359 0.04869141 6.6875 0.0625 C7.54214844 0.07410156 8.39679687 0.08570313 9.27734375 0.09765625 C9.27734375 0.42765625 9.27734375 0.75765625 9.27734375 1.09765625 C5.64734375 1.09765625 2.01734375 1.09765625 -1.72265625 1.09765625 C-1.20703125 2.02578125 -0.69140625 2.95390625 -0.16015625 3.91015625 C1.27734375 7.09765625 1.27734375 7.09765625 0.27734375 10.09765625 C-0.71265625 9.76765625 -1.70265625 9.43765625 -2.72265625 9.09765625 C-3.6015625 2.9453125 -3.6015625 2.9453125 -3.72265625 1.09765625 C-2.72265625 0.09765625 -2.72265625 0.09765625 0 0 Z " fill="#5B5B5B" transform="translate(8.72265625,13.90234375)"/>
</svg>
